<svg xmlns="http://www.w3.org/2000/svg" viewBox="0 0 800 600" width="800" height="600" role="img" aria-label="Банкетный стол" >
<defs>
<linearGradient id="bgG" x1="0" y1="0" x2="0" y2="1"><stop offset="0%" stop-color="#FAF7F2"/><stop offset="100%" stop-color="#F2ECE3"/></linearGradient>
<radialGradient id="plate" cx="50%" cy="46%" r="56%"><stop offset="0%" stop-color="#FFFFFF"/><stop offset="80%" stop-color="#EFE6D6"/><stop offset="100%" stop-color="#E4DCCF"/></radialGradient>
<linearGradient id="gld" x1="0" y1="0" x2="1" y2="1"><stop offset="0%" stop-color="#C9A961"/><stop offset="100%" stop-color="#B08D57"/></linearGradient>
<linearGradient id="food" x1="0" y1="0" x2="0" y2="1"><stop offset="0%" stop-color="#F3E8D2"/><stop offset="100%" stop-color="#D9C3A0"/></linearGradient>
</defs><rect width="800" height="600" fill="url(#bgG)"/>
<circle cx="400" cy="300" r="250.0" fill="#B08D57" opacity="0.05">
<animate attributeName="opacity" values="0.04;0.09;0.04" dur="8s" repeatCount="indefinite"/>
<animate attributeName="r" values="230.0;272.0;230.0" dur="8s" repeatCount="indefinite"/>
</circle>
<ellipse cx="400" cy="470" rx="320" ry="60" fill="#1C1815" opacity="0.04"/>
<rect x="80" y="300" width="640" height="150" rx="14" fill="url(#plate)" stroke="#E4DCCF" stroke-width="2"/>
<g transform="translate(0 0)"><animateTransform attributeName="transform" type="translate" values="0 0;0 -8;0 0" dur="7s" repeatCount="indefinite"/>

<circle cx="220" cy="370" r="40" fill="url(#plate)" stroke="url(#gld)" stroke-width="2"/><circle cx="220" cy="370" r="22" fill="#C9803F" opacity="0.55"/>
<circle cx="400" cy="360" r="46" fill="url(#plate)" stroke="url(#gld)" stroke-width="2"/><path d="M376 360 q24 -28 48 0 q-24 22 -48 0z" fill="#E8A07A" opacity="0.7"/>
<circle cx="580" cy="372" r="38" fill="url(#plate)" stroke="url(#gld)" stroke-width="2"/><circle cx="580" cy="372" r="20" fill="#8FA66B" opacity="0.6"/>
</g>
<g stroke="#B08D57" stroke-width="2.4" fill="none" opacity="0.3" stroke-linecap="round">
<path d="M220 330 q-7 -16 3 -30 q9 -12 2 -26"><animate attributeName="opacity" values="0;0.38;0" dur="4s" repeatCount="indefinite"/></path>
<path d="M238 330 q7 -16 -3 -30 q-9 -12 -2 -26"><animate attributeName="opacity" values="0;0.38;0" dur="4s" begin="1.4s" repeatCount="indefinite"/></path></g><g stroke="#B08D57" stroke-width="2.4" fill="none" opacity="0.3" stroke-linecap="round">
<path d="M580 332 q-7 -16 3 -30 q9 -12 2 -26"><animate attributeName="opacity" values="0;0.38;0" dur="4s" repeatCount="indefinite"/></path>
<path d="M598 332 q7 -16 -3 -30 q-9 -12 -2 -26"><animate attributeName="opacity" values="0;0.38;0" dur="4s" begin="1.4s" repeatCount="indefinite"/></path></g>
<text x="400" y="542" text-anchor="middle" font-family="Georgia, 'Cormorant', serif" font-size="28" fill="#1C1815" opacity="0.78">Банкетный стол</text>
<text x="400" y="568" text-anchor="middle" font-family="system-ui, sans-serif" font-size="12" letter-spacing="3" fill="#B08D57" opacity="0.85">ГЛАВНЫЙ ВИЗУАЛ</text>
</svg>