<svg xmlns="http://www.w3.org/2000/svg" viewBox="0 0 800 600" width="800" height="600" role="img" aria-label="Шашлык" >
<defs>
<linearGradient id="bgG" x1="0" y1="0" x2="0" y2="1"><stop offset="0%" stop-color="#FAF7F2"/><stop offset="100%" stop-color="#F2ECE3"/></linearGradient>
<radialGradient id="plate" cx="50%" cy="46%" r="56%"><stop offset="0%" stop-color="#FFFFFF"/><stop offset="80%" stop-color="#EFE6D6"/><stop offset="100%" stop-color="#E4DCCF"/></radialGradient>
<linearGradient id="gld" x1="0" y1="0" x2="1" y2="1"><stop offset="0%" stop-color="#C9A961"/><stop offset="100%" stop-color="#B08D57"/></linearGradient>
<linearGradient id="food" x1="0" y1="0" x2="0" y2="1"><stop offset="0%" stop-color="#F3E8D2"/><stop offset="100%" stop-color="#D9C3A0"/></linearGradient>
</defs><rect width="800" height="600" fill="url(#bgG)"/>
<circle cx="400" cy="300" r="250.0" fill="#B08D57" opacity="0.05">
<animate attributeName="opacity" values="0.04;0.09;0.04" dur="8s" repeatCount="indefinite"/>
<animate attributeName="r" values="230.0;272.0;230.0" dur="8s" repeatCount="indefinite"/>
</circle>
<g><animateTransform attributeName="transform" type="translate" values="0 0;0 -10;0 0" dur="6s" repeatCount="indefinite" calcMode="spline" keyTimes="0;0.5;1" keySplines="0.4 0 0.2 1;0.4 0 0.2 1"/>
<ellipse cx="400" cy="430" rx="210" ry="56" fill="#1C1815" opacity="0.05"/>
<circle cx="400" cy="335" r="162" fill="url(#plate)" stroke="#E4DCCF" stroke-width="2"/>
<g stroke="#B08D57" stroke-width="2.4" fill="none" opacity="0.3" stroke-linecap="round">
<path d="M360 300 q-7 -16 3 -30 q9 -12 2 -26"><animate attributeName="opacity" values="0;0.38;0" dur="4s" repeatCount="indefinite"/></path>
<path d="M378 300 q7 -16 -3 -30 q-9 -12 -2 -26"><animate attributeName="opacity" values="0;0.38;0" dur="4s" begin="1.4s" repeatCount="indefinite"/></path></g><g stroke="#B08D57" stroke-width="2.4" fill="none" opacity="0.3" stroke-linecap="round">
<path d="M440 300 q-7 -16 3 -30 q9 -12 2 -26"><animate attributeName="opacity" values="0;0.38;0" dur="4s" repeatCount="indefinite"/></path>
<path d="M458 300 q7 -16 -3 -30 q-9 -12 -2 -26"><animate attributeName="opacity" values="0;0.38;0" dur="4s" begin="1.4s" repeatCount="indefinite"/></path></g>
<g transform="translate(400 335) rotate(-12)"><g><animateTransform attributeName="transform" type="translate" values="0 0;0 -6;0 0" dur="5s" repeatCount="indefinite"/>
<rect x="-46" y="-13" width="92" height="26" rx="13" fill="#A8622E"/><rect x="-46" y="-13" width="92" height="9" rx="6" fill="#C9803F" opacity="0.8"/>
<rect x="-44" y="-15" width="88" height="3" rx="1.5" fill="{GOLD}"/></g></g><g transform="translate(400 375) rotate(8)"><g><animateTransform attributeName="transform" type="translate" values="0 0;0 -6;0 0" dur="5s" repeatCount="indefinite"/>
<rect x="-46" y="-13" width="92" height="26" rx="13" fill="#A8622E"/><rect x="-46" y="-13" width="92" height="9" rx="6" fill="#C9803F" opacity="0.8"/>
<rect x="-44" y="-15" width="88" height="3" rx="1.5" fill="{GOLD}"/></g></g><g transform="translate(400 415) rotate(-4)"><g><animateTransform attributeName="transform" type="translate" values="0 0;0 -6;0 0" dur="5s" repeatCount="indefinite"/>
<rect x="-46" y="-13" width="92" height="26" rx="13" fill="#A8622E"/><rect x="-46" y="-13" width="92" height="9" rx="6" fill="#C9803F" opacity="0.8"/>
<rect x="-44" y="-15" width="88" height="3" rx="1.5" fill="{GOLD}"/></g></g>
<path d="M250 470 q150 30 300 0" stroke="#7E8B6B" stroke-width="3" fill="none" opacity="0.4"/></g>
<text x="400" y="542" text-anchor="middle" font-family="Georgia, 'Cormorant', serif" font-size="28" fill="#1C1815" opacity="0.78">Шашлык</text>
<text x="400" y="568" text-anchor="middle" font-family="system-ui, sans-serif" font-size="12" letter-spacing="3" fill="#B08D57" opacity="0.85">ФОТО ПОЯВИТСЯ ПОЗЖЕ</text>
</svg>