<svg xmlns="http://www.w3.org/2000/svg" viewBox="0 0 800 600" width="800" height="600" role="img" aria-label="Шоу-станция" >
<defs>
<linearGradient id="bgG" x1="0" y1="0" x2="0" y2="1"><stop offset="0%" stop-color="#FAF7F2"/><stop offset="100%" stop-color="#F2ECE3"/></linearGradient>
<radialGradient id="plate" cx="50%" cy="46%" r="56%"><stop offset="0%" stop-color="#FFFFFF"/><stop offset="80%" stop-color="#EFE6D6"/><stop offset="100%" stop-color="#E4DCCF"/></radialGradient>
<linearGradient id="gld" x1="0" y1="0" x2="1" y2="1"><stop offset="0%" stop-color="#C9A961"/><stop offset="100%" stop-color="#B08D57"/></linearGradient>
<linearGradient id="food" x1="0" y1="0" x2="0" y2="1"><stop offset="0%" stop-color="#F3E8D2"/><stop offset="100%" stop-color="#D9C3A0"/></linearGradient>
</defs><rect width="800" height="600" fill="url(#bgG)"/>
<circle cx="400" cy="300" r="250.0" fill="#B08D57" opacity="0.05">
<animate attributeName="opacity" values="0.04;0.09;0.04" dur="8s" repeatCount="indefinite"/>
<animate attributeName="r" values="230.0;272.0;230.0" dur="8s" repeatCount="indefinite"/>
</circle>
<ellipse cx="400" cy="500" rx="300" ry="50" fill="#1C1815" opacity="0.05"/>
<rect x="120" y="180" width="560" height="280" rx="18" fill="url(#plate)" stroke="#E4DCCF" stroke-width="2"/>
<g><animateTransform attributeName="transform" type="translate" values="0 0;0 -10;0 0" dur="7s" repeatCount="indefinite"/>
<circle cx="280" cy="320" r="70" fill="#FFFFFF" stroke="url(#gld)" stroke-width="3" opacity="0.9"/><circle cx="280" cy="320" r="40" fill="#C9803F" opacity="0.5"/>
<circle cx="520" cy="320" r="70" fill="#FFFFFF" stroke="url(#gld)" stroke-width="3" opacity="0.9"/><path d="M492 320 q28 -32 56 0 q-28 24 -56 0z" fill="#E8A07A" opacity="0.6"/>
<rect x="330" y="250" width="140" height="140" rx="10" fill="#EFE6D6" opacity="0.7"/></g>
<g stroke="#B08D57" stroke-width="2.4" fill="none" opacity="0.3" stroke-linecap="round"><path d="M280 230 q-7 -16 3 -30"><animate attributeName="opacity" values="0;0.35;0" dur="4s" repeatCount="indefinite"/></path><path d="M520 230 q7 -16 -3 -30"><animate attributeName="opacity" values="0;0.35;0" dur="4s" begin="1.2s" repeatCount="indefinite"/></path></g>
<text x="400" y="542" text-anchor="middle" font-family="Georgia, 'Cormorant', serif" font-size="28" fill="#1C1815" opacity="0.78">Шоу-станция</text>
<text x="400" y="568" text-anchor="middle" font-family="system-ui, sans-serif" font-size="12" letter-spacing="3" fill="#B08D57" opacity="0.85">ФОТО ПОЯВИТСЯ ПОЗЖЕ</text>
</svg>